<svg width="25" height="25" viewBox="0 0 25 25" fill="none" xmlns="http://www.w3.org/2000/svg">
<g clip-path="url(#clip0_69_874)">
<path d="M5.48846 10.1563C5.48716 9.23006 5.66911 8.31276 6.02384 7.45719C6.37856 6.60162 6.89905 5.82468 7.55533 5.17113C8.21161 4.51757 8.9907 4.00031 9.84774 3.64915C10.7048 3.29798 11.6228 3.11985 12.549 3.125C16.4162 3.1543 19.5119 6.36719 19.5119 10.2441V10.9375C19.5119 14.4336 20.2443 16.4648 20.8888 17.5781C20.9573 17.6967 20.9934 17.8312 20.9935 17.9681C20.9936 18.105 20.9578 18.2395 20.8895 18.3582C20.8213 18.4769 20.7231 18.5755 20.6047 18.6443C20.4863 18.7131 20.3519 18.7495 20.215 18.75H4.78533C4.64843 18.7495 4.51406 18.7131 4.39567 18.6443C4.27729 18.5755 4.17906 18.4769 4.11082 18.3582C4.04257 18.2395 4.00671 18.105 4.00684 17.9681C4.00696 17.8312 4.04305 17.6967 4.11151 17.5781C4.75604 16.4648 5.48846 14.4336 5.48846 10.9375V10.1563Z" stroke="black" stroke-width="2" stroke-linecap="round" stroke-linejoin="round"/>
<path d="M9.375 18.75V19.5312C9.375 20.3601 9.70424 21.1549 10.2903 21.741C10.8763 22.327 11.6712 22.6562 12.5 22.6562C13.3288 22.6562 14.1237 22.327 14.7097 21.741C15.2958 21.1549 15.625 20.3601 15.625 19.5312V18.75" stroke="black" stroke-width="2" stroke-linecap="round" stroke-linejoin="round"/>
</g>
<defs>
<clipPath id="clip0_69_874">
<rect width="25" height="25" fill="white"/>
</clipPath>
</defs>
</svg>
