<svg width="40" height="40" viewBox="0 0 40 40" fill="none" xmlns="http://www.w3.org/2000/svg">
<g clip-path="url(#clip0_6_336)">
<path d="M32.5 6.25H7.5C6.80964 6.25 6.25 6.80964 6.25 7.5V32.5C6.25 33.1904 6.80964 33.75 7.5 33.75H32.5C33.1904 33.75 33.75 33.1904 33.75 32.5V7.5C33.75 6.80964 33.1904 6.25 32.5 6.25Z" stroke="#D9D9D9" stroke-width="3" stroke-linecap="round" stroke-linejoin="round"/>
<path d="M33.75 25L27.1406 18.3906C27.0243 18.2725 26.8857 18.1787 26.7328 18.1147C26.5799 18.0507 26.4158 18.0177 26.25 18.0177C26.0842 18.0177 25.9201 18.0507 25.7672 18.1147C25.6143 18.1787 25.4757 18.2725 25.3594 18.3906L18.3906 25.3594C18.2743 25.4775 18.1357 25.5713 17.9828 25.6353C17.8299 25.6993 17.6658 25.7323 17.5 25.7323C17.3342 25.7323 17.1701 25.6993 17.0172 25.6353C16.8643 25.5713 16.7257 25.4775 16.6094 25.3594L13.3906 22.1406C13.2743 22.0225 13.1357 21.9287 12.9828 21.8647C12.8299 21.8007 12.6658 21.7677 12.5 21.7677C12.3342 21.7677 12.1701 21.8007 12.0172 21.8647C11.8643 21.9287 11.7257 22.0225 11.6094 22.1406L6.25 27.5" stroke="#D9D9D9" stroke-width="3" stroke-linecap="round" stroke-linejoin="round"/>
<path d="M15.625 16.25C16.6605 16.25 17.5 15.4105 17.5 14.375C17.5 13.3395 16.6605 12.5 15.625 12.5C14.5895 12.5 13.75 13.3395 13.75 14.375C13.75 15.4105 14.5895 16.25 15.625 16.25Z" fill="#D9D9D9"/>
</g>
<defs>
<clipPath id="clip0_6_336">
<rect width="40" height="40" fill="white"/>
</clipPath>
</defs>
</svg>
