<svg width="117" height="24" viewBox="0 0 117 24" fill="none" xmlns="http://www.w3.org/2000/svg">
<path d="M6.875 19.65C5.75833 19.65 4.96667 19.3333 4.5 18.7C4.05 18.05 3.825 17.075 3.825 15.775C3.825 14.975 3.95 13.7833 4.2 12.2C4.45 10.6167 4.80833 8.54167 5.275 5.975C4.89167 6.025 4.4 6.1 3.8 6.2C3.21667 6.3 2.625 6.40833 2.025 6.525C1.425 6.625 0.925 6.725 0.525 6.825C0.425 6.50833 0.366667 6.2 0.35 5.9C0.333333 5.6 0.325 5.36667 0.325 5.2C0.325 4.25 0.491667 3.475 0.825 2.875C1.175 2.275 1.63333 1.83333 2.2 1.55C2.76667 1.26667 3.38333 1.125 4.05 1.125C4.9 1.125 5.74167 1.20833 6.575 1.375C7.40833 1.525 8.24167 1.68333 9.075 1.85C9.925 2.01667 10.7917 2.11667 11.675 2.15C12.2917 2.03333 12.975 1.88333 13.725 1.7C14.4917 1.51667 15.1583 1.34167 15.725 1.175C15.825 1.49167 15.8833 1.8 15.9 2.1C15.9167 2.4 15.925 2.63333 15.925 2.8C15.925 3.75 15.7333 4.525 15.35 5.125C14.9833 5.725 14.4833 6.16667 13.85 6.45C13.2333 6.73333 12.55 6.875 11.8 6.875C11.5833 6.875 11.375 6.875 11.175 6.875C10.975 6.85833 10.7833 6.84167 10.6 6.825C10.45 7.575 10.2917 8.35833 10.125 9.175C9.975 9.99167 9.83333 10.7833 9.7 11.55C9.56667 12.3 9.45 12.975 9.35 13.575C9.26667 14.1583 9.225 14.6 9.225 14.9C9.225 15.75 9.28333 16.4667 9.4 17.05C9.53333 17.6333 9.725 18.125 9.975 18.525C8.975 19.275 7.94167 19.65 6.875 19.65ZM22.8932 19.625C21.0932 19.625 19.5432 19.275 18.2432 18.575C16.9598 17.875 15.9682 16.9 15.2682 15.65C14.5848 14.4 14.2432 12.9667 14.2432 11.35C14.2432 9.25 14.6348 7.41667 15.4182 5.85C16.2182 4.28333 17.3515 3.06667 18.8182 2.2C20.3015 1.31667 22.0765 0.874999 24.1432 0.874999C25.1432 0.874999 25.8515 1.08333 26.2682 1.5C26.6848 1.9 26.8932 2.49167 26.8932 3.275C26.8932 3.39167 26.8848 3.5 26.8682 3.6C26.8682 3.7 26.8598 3.81667 26.8432 3.95C27.4765 3.45 28.1598 3.2 28.8932 3.2C29.5098 3.2 30.1015 3.39167 30.6682 3.775C31.2348 4.14167 31.6932 4.71667 32.0432 5.5C32.4098 6.28333 32.5932 7.275 32.5932 8.475C32.5932 10.2583 32.3182 11.8417 31.7682 13.225C31.2348 14.6083 30.5015 15.775 29.5682 16.725C28.6515 17.675 27.6182 18.4 26.4682 18.9C25.3182 19.3833 24.1265 19.625 22.8932 19.625ZM23.0932 15.975C23.9098 15.975 24.6515 15.6583 25.3182 15.025C26.0015 14.375 26.4682 13.5417 26.7182 12.525C26.1348 11.8083 25.7182 11.0917 25.4682 10.375C25.2348 9.64167 25.1182 8.91667 25.1182 8.2C25.1182 7.45 25.2098 6.78333 25.3932 6.2C25.5765 5.61667 25.8182 5.11667 26.1182 4.7C25.8182 4.65 25.5182 4.625 25.2182 4.625C24.2848 4.625 23.4682 4.825 22.7682 5.225C22.0848 5.625 21.5098 6.15833 21.0432 6.825C20.5932 7.475 20.2515 8.19167 20.0182 8.975C19.8015 9.74167 19.6932 10.5 19.6932 11.25C19.6932 12.1 19.8182 12.8833 20.0682 13.6C20.3348 14.3167 20.7182 14.8917 21.2182 15.325C21.7348 15.7583 22.3598 15.975 23.0932 15.975ZM45.7035 23.15C44.6035 23.15 43.8535 22.7917 43.4535 22.075C43.0535 21.3583 42.8535 20.4083 42.8535 19.225C42.4368 19.3417 41.9952 19.4333 41.5285 19.5C41.0618 19.5833 40.5702 19.625 40.0535 19.625C38.6202 19.625 37.3285 19.3333 36.1785 18.75C35.0452 18.15 34.1452 17.2333 33.4785 16C32.8118 14.7667 32.4785 13.2083 32.4785 11.325C32.4785 10.4083 32.6368 9.46667 32.9535 8.5C33.2702 7.53333 33.7285 6.6 34.3285 5.7C34.9452 4.78333 35.7035 3.96667 36.6035 3.25C37.5202 2.51667 38.5785 1.94167 39.7785 1.525C40.9785 1.09167 42.3118 0.874999 43.7785 0.874999C44.6785 0.874999 45.4868 0.999999 46.2035 1.25C46.9368 1.5 47.5118 1.875 47.9285 2.375C48.3452 2.85833 48.5535 3.46667 48.5535 4.2C48.5535 4.91667 48.3869 5.51667 48.0535 6C47.7368 6.48333 47.3118 6.85 46.7785 7.1C46.2619 7.33333 45.6952 7.45 45.0785 7.45C44.3452 7.45 43.6285 7.26667 42.9285 6.9C42.2285 6.53333 41.6618 5.99167 41.2285 5.275C40.6452 5.55833 40.0952 6.04167 39.5785 6.725C39.0785 7.39167 38.6785 8.175 38.3785 9.075C38.0785 9.975 37.9285 10.9083 37.9285 11.875C37.9285 13.275 38.2118 14.3083 38.7785 14.975C39.3452 15.625 40.0118 15.95 40.7785 15.95C41.3118 15.95 41.8535 15.8 42.4035 15.5C42.9702 15.2 43.4785 14.7667 43.9285 14.2C43.7285 13.7667 43.5118 13.3333 43.2785 12.9C43.0618 12.45 42.8535 12.0083 42.6535 11.575C43.3702 11.0917 44.1452 10.675 44.9785 10.325C45.8285 9.975 46.6618 9.8 47.4785 9.8C48.1952 9.8 48.6702 9.99167 48.9035 10.375C49.1535 10.7583 49.2785 11.2417 49.2785 11.825C49.2785 12.1917 49.2035 12.6833 49.0535 13.3C48.9202 13.9167 48.7619 14.6 48.5785 15.35C48.4118 16.0833 48.2535 16.8417 48.1035 17.625C47.9702 18.4083 47.9035 19.15 47.9035 19.85C47.9035 20.3167 47.9618 20.75 48.0785 21.15C48.1952 21.55 48.3618 21.875 48.5785 22.125C48.1118 22.4583 47.6202 22.7083 47.1035 22.875C46.6035 23.0583 46.1368 23.15 45.7035 23.15ZM53.0705 19.65C51.9538 19.65 51.1622 19.3333 50.6955 18.7C50.2455 18.05 50.0205 17.075 50.0205 15.775C50.0205 14.9417 50.1538 13.6917 50.4205 12.025C50.7038 10.3417 51.0955 8.11667 51.5955 5.35L50.2705 2.675C51.0538 2.175 51.8872 1.75 52.7705 1.4C53.6538 1.03333 54.5372 0.85 55.4205 0.85C55.9872 0.85 56.4038 0.983333 56.6705 1.25C56.9538 1.51667 57.1455 1.85 57.2455 2.25C57.8288 2.23333 58.5122 2.16667 59.2955 2.05C60.0788 1.93333 60.9038 1.78333 61.7705 1.6C62.6372 1.41667 63.4788 1.20833 64.2955 0.975C64.3788 1.29167 64.4288 1.58333 64.4455 1.85C64.4788 2.11667 64.4955 2.36667 64.4955 2.6C64.4955 3.55 64.2788 4.325 63.8455 4.925C63.4122 5.525 62.8288 5.96667 62.0955 6.25C61.3788 6.53333 60.5872 6.675 59.7205 6.675C58.7872 6.675 57.8538 6.475 56.9205 6.075C56.8205 6.64167 56.7122 7.24167 56.5955 7.875C56.4788 8.49167 56.3538 9.11667 56.2205 9.75C56.4872 9.8 56.7455 9.84167 56.9955 9.875C57.2622 9.90833 57.5288 9.925 57.7955 9.925C58.1288 9.85833 58.5038 9.775 58.9205 9.675C59.3538 9.55833 59.7288 9.45 60.0455 9.35C60.1122 9.56667 60.1455 9.79167 60.1455 10.025C60.1622 10.2417 60.1705 10.4167 60.1705 10.55C60.1705 11.35 59.8955 11.9333 59.3455 12.3C58.8122 12.6667 58.1788 12.85 57.4455 12.85C57.1288 12.85 56.8288 12.8333 56.5455 12.8C56.2622 12.75 55.9788 12.6917 55.6955 12.625C55.6122 13.125 55.5455 13.6 55.4955 14.05C55.4455 14.5 55.4205 15.0167 55.4205 15.6H59.4705C60.7372 15.4167 62.0122 15.0917 63.2955 14.625C63.3622 14.8083 63.4038 15 63.4205 15.2C63.4372 15.4 63.4455 15.6167 63.4455 15.85C63.4455 16.4333 63.3288 17.0167 63.0955 17.6C62.8622 18.1833 62.5038 18.6667 62.0205 19.05C61.5372 19.4333 60.9288 19.625 60.1955 19.625C59.8122 19.625 59.4205 19.5917 59.0205 19.525C58.6205 19.4583 58.2038 19.3833 57.7705 19.3C57.4538 19.2333 57.1122 19.1667 56.7455 19.1C56.3955 19.0333 56.0038 18.975 55.5705 18.925C54.7705 19.4083 53.9372 19.65 53.0705 19.65ZM69.824 19.625C68.7574 19.625 67.799 19.45 66.949 19.1C66.1157 18.75 65.4574 18.2333 64.974 17.55C64.4907 16.85 64.249 15.975 64.249 14.925C64.249 14.2917 64.324 13.4667 64.474 12.45C64.6407 11.4333 64.8407 10.3167 65.074 9.1C65.3074 7.86667 65.5324 6.61667 65.749 5.35L64.424 2.675C65.3574 2.14167 66.249 1.70833 67.099 1.375C67.9657 1.04167 68.874 0.874999 69.824 0.874999C70.224 0.874999 70.5574 0.941666 70.824 1.075C71.0907 1.20833 71.3074 1.39167 71.474 1.625C72.1907 1.375 72.8657 1.19167 73.499 1.075C74.1324 0.958333 74.7324 0.899999 75.299 0.899999C76.8157 0.899999 78.0824 1.24167 79.099 1.925C80.1157 2.60833 80.874 3.50833 81.374 4.625C81.8907 5.74167 82.149 6.95833 82.149 8.275C82.149 9.325 81.9824 10.3833 81.649 11.45C81.3324 12.5167 80.8407 13.5417 80.174 14.525C79.524 15.5083 78.7074 16.3833 77.724 17.15C76.7407 17.9167 75.5907 18.525 74.274 18.975C72.9574 19.4083 71.474 19.625 69.824 19.625ZM70.724 15.975C71.9907 15.975 73.049 15.6583 73.899 15.025C74.7657 14.3917 75.4157 13.5583 75.849 12.525C76.2824 11.4917 76.499 10.375 76.499 9.175C76.499 7.675 76.1574 6.45833 75.474 5.525C74.7907 4.575 73.774 4.1 72.424 4.1C72.274 4.1 72.1157 4.10833 71.949 4.125C71.7824 4.14167 71.6074 4.16667 71.424 4.2C71.324 4.86667 71.1907 5.7 71.024 6.7C70.874 7.7 70.699 8.76667 70.499 9.9C70.3157 11.0167 70.1324 12.1083 69.949 13.175C69.7824 14.225 69.649 15.125 69.549 15.875C69.749 15.9083 69.949 15.9333 70.149 15.95C70.349 15.9667 70.5407 15.975 70.724 15.975ZM90.1832 19.625C88.3832 19.625 86.8332 19.275 85.5332 18.575C84.2499 17.875 83.2582 16.9 82.5582 15.65C81.8749 14.4 81.5332 12.9667 81.5332 11.35C81.5332 9.25 81.9249 7.41667 82.7082 5.85C83.5082 4.28333 84.6415 3.06667 86.1082 2.2C87.5915 1.31667 89.3665 0.874999 91.4332 0.874999C92.4332 0.874999 93.1415 1.08333 93.5582 1.5C93.9749 1.9 94.1832 2.49167 94.1832 3.275C94.1832 3.39167 94.1749 3.5 94.1582 3.6C94.1582 3.7 94.1499 3.81667 94.1332 3.95C94.7665 3.45 95.4499 3.2 96.1832 3.2C96.7999 3.2 97.3915 3.39167 97.9582 3.775C98.5249 4.14167 98.9832 4.71667 99.3332 5.5C99.6999 6.28333 99.8832 7.275 99.8832 8.475C99.8832 10.2583 99.6082 11.8417 99.0582 13.225C98.5249 14.6083 97.7915 15.775 96.8582 16.725C95.9415 17.675 94.9082 18.4 93.7582 18.9C92.6082 19.3833 91.4165 19.625 90.1832 19.625ZM90.3832 15.975C91.1999 15.975 91.9415 15.6583 92.6082 15.025C93.2915 14.375 93.7582 13.5417 94.0082 12.525C93.4249 11.8083 93.0082 11.0917 92.7582 10.375C92.5249 9.64167 92.4082 8.91667 92.4082 8.2C92.4082 7.45 92.4999 6.78333 92.6832 6.2C92.8665 5.61667 93.1082 5.11667 93.4082 4.7C93.1082 4.65 92.8082 4.625 92.5082 4.625C91.5749 4.625 90.7582 4.825 90.0582 5.225C89.3749 5.625 88.7999 6.15833 88.3332 6.825C87.8832 7.475 87.5415 8.19167 87.3082 8.975C87.0915 9.74167 86.9832 10.5 86.9832 11.25C86.9832 12.1 87.1082 12.8833 87.3582 13.6C87.6249 14.3167 88.0082 14.8917 88.5082 15.325C89.0249 15.7583 89.6499 15.975 90.3832 15.975ZM112.994 23.15C111.894 23.15 111.144 22.7917 110.744 22.075C110.344 21.3583 110.144 20.4083 110.144 19.225C109.727 19.3417 109.285 19.4333 108.819 19.5C108.352 19.5833 107.86 19.625 107.344 19.625C105.91 19.625 104.619 19.3333 103.469 18.75C102.335 18.15 101.435 17.2333 100.769 16C100.102 14.7667 99.7686 13.2083 99.7686 11.325C99.7686 10.4083 99.9269 9.46667 100.244 8.5C100.56 7.53333 101.019 6.6 101.619 5.7C102.235 4.78333 102.994 3.96667 103.894 3.25C104.81 2.51667 105.869 1.94167 107.069 1.525C108.269 1.09167 109.602 0.874999 111.069 0.874999C111.969 0.874999 112.777 0.999999 113.494 1.25C114.227 1.5 114.802 1.875 115.219 2.375C115.635 2.85833 115.844 3.46667 115.844 4.2C115.844 4.91667 115.677 5.51667 115.344 6C115.027 6.48333 114.602 6.85 114.069 7.1C113.552 7.33333 112.985 7.45 112.369 7.45C111.635 7.45 110.919 7.26667 110.219 6.9C109.519 6.53333 108.952 5.99167 108.519 5.275C107.935 5.55833 107.385 6.04167 106.869 6.725C106.369 7.39167 105.969 8.175 105.669 9.075C105.369 9.975 105.219 10.9083 105.219 11.875C105.219 13.275 105.502 14.3083 106.069 14.975C106.635 15.625 107.302 15.95 108.069 15.95C108.602 15.95 109.144 15.8 109.694 15.5C110.26 15.2 110.769 14.7667 111.219 14.2C111.019 13.7667 110.802 13.3333 110.569 12.9C110.352 12.45 110.144 12.0083 109.944 11.575C110.66 11.0917 111.435 10.675 112.269 10.325C113.119 9.975 113.952 9.8 114.769 9.8C115.485 9.8 115.96 9.99167 116.194 10.375C116.444 10.7583 116.569 11.2417 116.569 11.825C116.569 12.1917 116.494 12.6833 116.344 13.3C116.21 13.9167 116.052 14.6 115.869 15.35C115.702 16.0833 115.544 16.8417 115.394 17.625C115.26 18.4083 115.194 19.15 115.194 19.85C115.194 20.3167 115.252 20.75 115.369 21.15C115.485 21.55 115.652 21.875 115.869 22.125C115.402 22.4583 114.91 22.7083 114.394 22.875C113.894 23.0583 113.427 23.15 112.994 23.15Z" fill="black"/>
</svg>
