<svg width="20" height="20" viewBox="0 0 20 20" fill="none" xmlns="http://www.w3.org/2000/svg">
<path d="M18.7411 7.75C18.4018 7.40179 18.0536 7.03571 17.9196 6.72321C17.7857 6.41071 17.7946 5.94643 17.7857 5.47321C17.7768 4.60714 17.7589 3.61607 17.0714 2.92857C16.3839 2.24107 15.3929 2.22321 14.5268 2.21429C14.0536 2.20536 13.5714 2.19643 13.2768 2.08036C12.9821 1.96429 12.5982 1.59821 12.25 1.25893C11.6339 0.669643 10.9286 0 10 0C9.07143 0 8.36607 0.669643 7.75 1.25893C7.40179 1.59821 7.03571 1.94643 6.72321 2.08036C6.41071 2.21429 5.94643 2.20536 5.47321 2.21429C4.60714 2.22321 3.61607 2.24107 2.92857 2.92857C2.24107 3.61607 2.22321 4.60714 2.21429 5.47321C2.20536 5.94643 2.19643 6.42857 2.08036 6.72321C1.96429 7.01786 1.59821 7.40179 1.25893 7.75C0.669643 8.36607 0 9.07143 0 10C0 10.9286 0.669643 11.6339 1.25893 12.25C1.59821 12.5982 1.94643 12.9643 2.08036 13.2768C2.21429 13.5893 2.20536 14.0536 2.21429 14.5268C2.22321 15.3929 2.24107 16.3839 2.92857 17.0714C3.61607 17.7589 4.60714 17.7768 5.47321 17.7857C5.94643 17.7946 6.42857 17.8036 6.72321 17.9196C7.01786 18.0357 7.40179 18.4018 7.75 18.7411C8.36607 19.3304 9.07143 20 10 20C10.9286 20 11.6339 19.3304 12.25 18.7411C12.5982 18.4018 12.9643 18.0536 13.2768 17.9196C13.5893 17.7857 14.0536 17.7946 14.5268 17.7857C15.3929 17.7768 16.3839 17.7589 17.0714 17.0714C17.7589 16.3839 17.7768 15.3929 17.7857 14.5268C17.7946 14.0536 17.8036 13.5714 17.9196 13.2768C18.0357 12.9821 18.4018 12.5982 18.7411 12.25C19.3304 11.6339 20 10.9286 20 10C20 9.07143 19.3304 8.36607 18.7411 7.75ZM14.4196 8.375L9.1875 13.375C9.05223 13.5022 8.87321 13.5726 8.6875 13.5714C8.50453 13.5721 8.32845 13.5017 8.19643 13.375L5.58036 10.875C5.5078 10.8117 5.44879 10.7344 5.40687 10.6477C5.36496 10.561 5.341 10.4667 5.33645 10.3705C5.3319 10.2743 5.34685 10.1782 5.38039 10.088C5.41393 9.99769 5.46538 9.91515 5.53164 9.84527C5.5979 9.7754 5.6776 9.71964 5.76596 9.68136C5.85431 9.64308 5.9495 9.62305 6.04579 9.62249C6.14209 9.62193 6.2375 9.64085 6.32629 9.67811C6.41509 9.71536 6.49543 9.77019 6.5625 9.83929L8.6875 11.8661L13.4375 7.33929C13.5764 7.21811 13.7567 7.15532 13.9408 7.16403C14.1249 7.17274 14.2986 7.25228 14.4254 7.38603C14.5522 7.51977 14.6224 7.69736 14.6214 7.88167C14.6203 8.06598 14.548 8.24274 14.4196 8.375Z" fill="#4A65EE"/>
</svg>
