<svg width="20" height="20" viewBox="0 0 20 20" fill="none" xmlns="http://www.w3.org/2000/svg">
<g clip-path="url(#clip0_58_21)">
<path d="M10.2625 11.4625C10.9252 11.4625 11.4625 10.9252 11.4625 10.2625C11.4625 9.59976 10.9252 9.0625 10.2625 9.0625C9.59976 9.0625 9.0625 9.59976 9.0625 10.2625C9.0625 10.9252 9.59976 11.4625 10.2625 11.4625Z" fill="black"/>
<path d="M10.2625 6.4625C10.9252 6.4625 11.4625 5.92524 11.4625 5.2625C11.4625 4.59976 10.9252 4.0625 10.2625 4.0625C9.59976 4.0625 9.0625 4.59976 9.0625 5.2625C9.0625 5.92524 9.59976 6.4625 10.2625 6.4625Z" fill="black"/>
<path d="M10.2625 16.4625C10.9252 16.4625 11.4625 15.9252 11.4625 15.2625C11.4625 14.5998 10.9252 14.0625 10.2625 14.0625C9.59976 14.0625 9.0625 14.5998 9.0625 15.2625C9.0625 15.9252 9.59976 16.4625 10.2625 16.4625Z" fill="black"/>
</g>
<defs>
<clipPath id="clip0_58_21">
<rect width="20" height="20" fill="white"/>
</clipPath>
</defs>
</svg>
